<svg width="20" height="20" viewBox="0 0 20 20" fill="none" xmlns="http://www.w3.org/2000/svg">
<path d="M2.09022 1.50974C1.93 1.34937 1.66998 1.34937 1.50979 1.50974C1.34942 1.66996 1.34942 1.92998 1.50979 2.09017L5.05045 5.63021C3.58592 6.76638 2.35986 8.18025 1.44252 9.79076C1.36714 9.92 1.36714 10.0798 1.44252 10.209C3.31049 13.3636 5.69096 15.3512 8.33041 15.9598C8.87791 16.0861 9.43803 16.1499 10 16.1499C11.5163 16.1285 12.9953 15.6761 14.2641 14.8453L17.9082 18.4902V18.4903C18.0686 18.6506 18.3284 18.6506 18.4888 18.4903C18.6491 18.33 18.6491 18.0701 18.4888 17.9097L2.09022 1.50974ZM8.29178 8.87146L11.129 11.7087H11.1292C10.5997 12.0543 9.94049 12.1362 9.34267 11.9309C8.74467 11.7255 8.27502 11.2558 8.06963 10.658C7.8644 10.06 7.94634 9.40078 8.29195 8.87148L8.29178 8.87146ZM8.5173 15.1601C6.16058 14.6172 4.00715 12.8345 2.27785 9.99998H2.278C3.13769 8.5301 4.27738 7.24318 5.63265 6.21228L7.71042 8.29021C7.15058 9.02951 6.98472 9.99447 7.26531 10.8783C7.54607 11.7622 8.23851 12.4546 9.1223 12.7353C10.0061 13.016 10.9712 12.85 11.7105 12.2901L13.672 14.2517H13.6719C12.1407 15.2221 10.2881 15.5487 8.51719 15.1602L8.5173 15.1601ZM10.2992 7.98045L9.49965 7.18088C9.66444 7.14761 9.83198 7.13067 10 7.13006C10.7611 7.13006 11.4911 7.43234 12.0294 7.97069C12.5676 8.50885 12.87 9.23885 12.87 10.0001C12.8694 10.1681 12.8523 10.3356 12.8191 10.5003L12.0195 9.70073H12.0197C11.9553 9.26737 11.7532 8.86624 11.4435 8.55647C11.1337 8.24672 10.7326 8.04467 10.2992 7.98045ZM18.5531 9.79107V9.79092C18.6287 9.92016 18.6287 10.0799 18.5531 10.2092C17.8312 11.452 16.9368 12.5862 15.8964 13.5777L15.315 12.9954V12.9956C16.2498 12.1113 17.0596 11.1035 17.7216 10.0001C15.6232 6.56092 12.8884 4.67002 9.99976 4.67002C9.14101 4.67872 8.29168 4.8516 7.49793 5.1792L6.86238 4.54365C7.84765 4.09427 8.91668 3.85775 9.99972 3.84998C13.2485 3.84998 16.2857 5.95982 18.5529 9.79099L18.5531 9.79107Z" fill="black"/>
</svg>
